<svg width="119" height="131" viewBox="0 0 119 131" fill="none" xmlns="http://www.w3.org/2000/svg">
<path d="M45.849 51H36.889L16.601 20.344V51H7.641V6.264H16.601L36.889 36.984V6.264H45.849V51ZM65.6475 11.32C64.0688 11.32 62.7462 10.8293 61.6795 9.848C60.6555 8.824 60.1435 7.56533 60.1435 6.072C60.1435 4.57866 60.6555 3.34133 61.6795 2.36C62.7462 1.336 64.0688 0.823997 65.6475 0.823997C67.2262 0.823997 68.5275 1.336 69.5515 2.36C70.6182 3.34133 71.1515 4.57866 71.1515 6.072C71.1515 7.56533 70.6182 8.824 69.5515 9.848C68.5275 10.8293 67.2262 11.32 65.6475 11.32ZM70.0635 15.544V51H61.1035V15.544H70.0635ZM98.884 51.576C95.9827 51.576 93.38 51.064 91.076 50.04C88.772 48.9733 86.9373 47.544 85.572 45.752C84.2493 43.96 83.524 41.976 83.396 39.8H92.42C92.5907 41.1653 93.252 42.296 94.404 43.192C95.5987 44.088 97.0707 44.536 98.82 44.536C100.527 44.536 101.849 44.1947 102.788 43.512C103.769 42.8293 104.26 41.9547 104.26 40.888C104.26 39.736 103.663 38.8827 102.468 38.328C101.316 37.7307 99.46 37.0907 96.9 36.408C94.2547 35.768 92.0787 35.1067 90.372 34.424C88.708 33.7413 87.2573 32.696 86.02 31.288C84.8253 29.88 84.228 27.9813 84.228 25.592C84.228 23.6293 84.7827 21.8373 85.892 20.216C87.044 18.5947 88.6653 17.3147 90.756 16.376C92.8893 15.4373 95.3853 14.968 98.244 14.968C102.468 14.968 105.839 16.0347 108.356 18.168C110.873 20.2587 112.26 23.096 112.516 26.68H103.94C103.812 25.272 103.215 24.1627 102.148 23.352C101.124 22.4987 99.7373 22.072 97.988 22.072C96.3667 22.072 95.108 22.3707 94.212 22.968C93.3587 23.5653 92.932 24.3973 92.932 25.464C92.932 26.6587 93.5293 27.576 94.724 28.216C95.9187 28.8133 97.7747 29.432 100.292 30.072C102.852 30.712 104.964 31.3733 106.628 32.056C108.292 32.7387 109.721 33.8053 110.916 35.256C112.153 36.664 112.793 38.5413 112.836 40.888C112.836 42.936 112.26 44.7707 111.108 46.392C109.999 48.0133 108.377 49.2933 106.244 50.232C104.153 51.128 101.7 51.576 98.884 51.576ZM22.26 91.576C18.8467 91.576 15.7747 90.8293 13.044 89.336C10.3133 87.8 8.15867 85.6453 6.58 82.872C5.044 80.0987 4.276 76.8987 4.276 73.272C4.276 69.6453 5.06533 66.4453 6.644 63.672C8.26533 60.8987 10.4627 58.7653 13.236 57.272C16.0093 55.736 19.1027 54.968 22.516 54.968C25.9293 54.968 29.0227 55.736 31.796 57.272C34.5693 58.7653 36.7453 60.8987 38.324 63.672C39.9453 66.4453 40.756 69.6453 40.756 73.272C40.756 76.8987 39.924 80.0987 38.26 82.872C36.6387 85.6453 34.42 87.8 31.604 89.336C28.8307 90.8293 25.716 91.576 22.26 91.576ZM22.26 83.768C23.8813 83.768 25.396 83.384 26.804 82.616C28.2547 81.8053 29.4067 80.6107 30.26 79.032C31.1133 77.4533 31.54 75.5333 31.54 73.272C31.54 69.9013 30.644 67.32 28.852 65.528C27.1027 63.6933 24.948 62.776 22.388 62.776C19.828 62.776 17.6733 63.6933 15.924 65.528C14.2173 67.32 13.364 69.9013 13.364 73.272C13.364 76.6427 14.196 79.2453 15.86 81.08C17.5667 82.872 19.7 83.768 22.26 83.768ZM62.6885 43.64V91H53.7285V43.64H62.6885ZM75.637 73.144C75.637 69.56 76.341 66.3813 77.749 63.608C79.1997 60.8347 81.141 58.7013 83.573 57.208C86.0477 55.7147 88.7997 54.968 91.829 54.968C94.4743 54.968 96.7783 55.5013 98.741 56.568C100.746 57.6347 102.346 58.9787 103.541 60.6V55.544H112.565V91H103.541V85.816C102.389 87.48 100.789 88.8667 98.741 89.976C96.7357 91.0427 94.4103 91.576 91.765 91.576C88.7783 91.576 86.0477 90.808 83.573 89.272C81.141 87.736 79.1997 85.5813 77.749 82.808C76.341 79.992 75.637 76.7707 75.637 73.144ZM103.541 73.272C103.541 71.096 103.114 69.24 102.261 67.704C101.408 66.1253 100.256 64.9307 98.805 64.12C97.3543 63.2667 95.797 62.84 94.133 62.84C92.469 62.84 90.933 63.2453 89.525 64.056C88.117 64.8667 86.965 66.0613 86.069 67.64C85.2157 69.176 84.789 71.0107 84.789 73.144C84.789 75.2773 85.2157 77.1547 86.069 78.776C86.965 80.3547 88.117 81.5707 89.525 82.424C90.9757 83.2773 92.5117 83.704 94.133 83.704C95.797 83.704 97.3543 83.2987 98.805 82.488C100.256 81.6347 101.408 80.44 102.261 78.904C103.114 77.3253 103.541 75.448 103.541 73.272ZM77.126 111.504C77.126 112.784 77.0407 113.936 76.87 114.96H50.95C51.1633 117.52 52.0593 119.525 53.638 120.976C55.2167 122.427 57.158 123.152 59.462 123.152C62.79 123.152 65.158 121.723 66.566 118.864H76.23C75.206 122.277 73.2433 125.093 70.342 127.312C67.4407 129.488 63.878 130.576 59.654 130.576C56.2407 130.576 53.1687 129.829 50.438 128.336C47.75 126.8 45.638 124.645 44.102 121.872C42.6087 119.099 41.862 115.899 41.862 112.272C41.862 108.603 42.6087 105.381 44.102 102.608C45.5953 99.8347 47.686 97.7013 50.374 96.208C53.062 94.7147 56.1553 93.968 59.654 93.968C63.0247 93.968 66.0327 94.6933 68.678 96.144C71.366 97.5947 73.4353 99.664 74.886 102.352C76.3793 104.997 77.126 108.048 77.126 111.504ZM67.846 108.944C67.8033 106.64 66.9713 104.805 65.35 103.44C63.7287 102.032 61.7447 101.328 59.398 101.328C57.1793 101.328 55.302 102.011 53.766 103.376C52.2727 104.699 51.3553 106.555 51.014 108.944H67.846Z" fill="#F2994A"/>
</svg>
